<svg width="285" height="256" viewBox="0 0 285 256" fill="none" xmlns="http://www.w3.org/2000/svg">
<path d="M5.28714 122.597L30.0851 5.94812H84.5076L80.8462 22.7789H45.896L39.0723 55.4406H66.5332L62.8718 72.2714H35.4109L24.7594 122.597H5.28714Z" fill="#E1FF28"/>
<path d="M70.9488 122.597L95.7468 5.94812H151.834L148.172 22.7789H111.558L104.9 54.1075H134.192L130.697 70.9383H101.405L93.9161 105.766H130.531L127.036 122.597H70.9488Z" fill="#E1FF28"/>
<path d="M139.373 122.597L164.171 5.94812H183.644L158.846 122.597H139.373Z" fill="#E1FF28"/>
<path d="M192.431 122.597L213.567 22.7789H191.599L195.094 5.94812H258.503L255.008 22.7789H232.873L211.737 122.597H192.431Z" fill="#E1FF28"/>
<path d="M44.1589 254.93L68.9569 138.281H88.4292L67.1262 238.099H102.076L98.5814 254.93H44.1589Z" fill="#E1FF28"/>
<path d="M109.821 254.93L134.619 138.281H154.091L129.293 254.93H109.821Z" fill="#E1FF28"/>
<path d="M204.818 138.281L185.845 228.767C182.184 245.598 173.03 255.763 155.721 255.763C150.895 255.763 144.238 254.93 140.576 253.597L144.238 236.933C147.733 238.099 151.727 238.599 154.223 238.599C160.714 238.599 165.041 235.266 166.706 227.434L185.512 138.281H204.818Z" fill="#E1FF28"/>
<path d="M195.636 254.93L220.434 138.281H243.9L251.889 211.437L267.533 138.281H284.842L260.044 254.93H241.071L231.585 167.61L212.945 254.93H195.636Z" fill="#E1FF28"/>
<path d="M1 118.649L25.798 2H80.2205L76.559 18.8308H41.6088L34.7852 51.4925H62.2461L58.5846 68.3233H31.1238L20.4723 118.649H1Z" fill="#0A00FF"/>
<path d="M66.6617 118.649L91.4597 2H147.546L143.885 18.8308H107.27L100.613 50.1594H129.905L126.41 66.9902H97.1183L89.629 101.818H126.243L122.748 118.649H66.6617Z" fill="#0A00FF"/>
<path d="M135.086 118.649L159.884 2H179.357L154.559 118.649H135.086Z" fill="#0A00FF"/>
<path d="M188.144 118.649L209.28 18.8308H187.311L190.806 2H254.216L250.721 18.8308H228.586L207.449 118.649H188.144Z" fill="#0A00FF"/>
<path d="M39.8718 250.982L64.6698 134.333H84.1421L62.8391 234.151H97.7893L94.2943 250.982H39.8718Z" fill="#0A00FF"/>
<path d="M105.533 250.982L130.331 134.333H149.804L125.006 250.982H105.533Z" fill="#0A00FF"/>
<path d="M200.531 134.333L181.558 224.819C177.897 241.65 168.743 251.815 151.434 251.815C146.608 251.815 139.951 250.982 136.289 249.649L139.951 232.985C143.446 234.151 147.44 234.651 149.936 234.651C156.427 234.651 160.754 231.318 162.419 223.486L181.225 134.333H200.531Z" fill="#0A00FF"/>
<path d="M191.349 250.982L216.147 134.333H239.613L247.602 207.488L263.246 134.333H280.555L255.757 250.982H236.784L227.298 163.662L208.657 250.982H191.349Z" fill="#0A00FF"/>
<path d="M0 116.649L24.798 0H79.2205L75.559 16.8308H40.6088L33.7852 49.4925H61.2461L57.5846 66.3233H30.1238L19.4723 116.649H0Z" fill="white"/>
<path d="M65.6617 116.649L90.4597 0H146.546L142.885 16.8308H106.27L99.6133 48.1594H128.905L125.41 64.9902H96.1183L88.629 99.8182H125.243L121.748 116.649H65.6617Z" fill="white"/>
<path d="M134.086 116.649L158.884 0H178.357L153.559 116.649H134.086Z" fill="white"/>
<path d="M187.144 116.649L208.28 16.8308H186.311L189.806 0H253.216L249.721 16.8308H227.586L206.449 116.649H187.144Z" fill="white"/>
<path d="M38.8718 248.982L63.6698 132.333H83.1421L61.8391 232.151H96.7893L93.2943 248.982H38.8718Z" fill="white"/>
<path d="M104.533 248.982L129.331 132.333H148.804L124.006 248.982H104.533Z" fill="white"/>
<path d="M199.531 132.333L180.558 222.819C176.897 239.65 167.743 249.815 150.434 249.815C145.608 249.815 138.951 248.982 135.289 247.649L138.951 230.985C142.446 232.151 146.44 232.651 148.936 232.651C155.427 232.651 159.754 229.318 161.419 221.486L180.225 132.333H199.531Z" fill="white"/>
<path d="M190.349 248.982L215.147 132.333H238.613L246.602 205.488L262.246 132.333H279.555L254.757 248.982H235.784L226.298 161.662L207.657 248.982H190.349Z" fill="white"/>
</svg>
