<svg width="404" height="362" viewBox="0 0 404 362" fill="none" xmlns="http://www.w3.org/2000/svg">
<path d="M7.48315 173.521L42.5816 8.41895H119.61L114.427 32.2408H64.9598L55.3018 78.4693H94.1692L88.9869 102.291H50.1195L35.0437 173.521H7.48315Z" fill="#F9B0FF"/>
<path d="M100.419 173.521L135.517 8.41895H214.901L209.719 32.2408H157.896L148.473 76.5825H189.932L184.985 100.404H143.526L132.926 149.699H184.749L179.803 173.521H100.419Z" fill="#F9B0FF"/>
<path d="M197.265 173.521L232.364 8.41895H259.924L224.826 173.521H197.265Z" fill="#F9B0FF"/>
<path d="M272.361 173.521L302.277 32.2408H271.183L276.13 8.41895H365.878L360.932 32.2408H329.602L299.686 173.521H272.361Z" fill="#F9B0FF"/>
<path d="M62.5013 360.821L97.5997 195.719H125.16L95.0085 336.999H144.476L139.529 360.821H62.5013Z" fill="#F9B0FF"/>
<path d="M155.437 360.821L190.535 195.719H218.096L182.998 360.821H155.437Z" fill="#F9B0FF"/>
<path d="M289.894 195.719L263.04 323.791C257.858 347.613 244.902 362.001 220.404 362.001C213.572 362.001 204.15 360.821 198.968 358.934L204.15 335.348C209.097 336.999 214.75 337.707 218.284 337.707C227.471 337.707 233.595 332.99 235.951 321.904L262.569 195.719H289.894Z" fill="#F9B0FF"/>
<path d="M276.898 360.821L311.996 195.719H345.21L356.517 299.262L378.66 195.719H403.158L368.059 360.821H341.206L327.779 237.231L301.396 360.821H276.898Z" fill="#F9B0FF"/>
<path d="M0 165.102L35.0984 0H112.127L106.944 23.8218H57.4766L47.8187 70.0504H86.6861L81.5038 93.8722H42.6364L27.5605 165.102H0Z" fill="white"/>
<path d="M92.9358 165.102L128.034 0H207.418L202.236 23.8218H150.412L140.99 68.1635H182.449L177.502 91.9854H136.043L125.443 141.28H177.266L172.319 165.102H92.9358Z" fill="white"/>
<path d="M189.782 165.102L224.881 0H252.441L217.343 165.102H189.782Z" fill="white"/>
<path d="M264.878 165.102L294.794 23.8218H263.7L268.647 0H358.395L353.449 23.8218H322.119L292.203 165.102H264.878Z" fill="white"/>
<path d="M55.0181 352.402L90.1165 187.3H117.677L87.5254 328.58H136.993L132.046 352.402H55.0181Z" fill="white"/>
<path d="M147.954 352.402L183.052 187.3H210.613L175.514 352.402H147.954Z" fill="white"/>
<path d="M282.411 187.3L255.557 315.372C250.375 339.194 237.419 353.582 212.921 353.582C206.089 353.582 196.667 352.402 191.485 350.515L196.667 326.929C201.614 328.58 207.267 329.288 210.801 329.288C219.987 329.288 226.112 324.571 228.468 313.485L255.086 187.3H282.411Z" fill="white"/>
<path d="M269.414 352.402L304.513 187.3H337.727L349.034 290.843L371.176 187.3H395.675L360.576 352.402H333.722L320.295 228.812L293.913 352.402H269.414Z" fill="white"/>
</svg>
