<svg width="396" height="354" viewBox="0 0 396 354" fill="none" xmlns="http://www.w3.org/2000/svg">
<path d="M0 165.102L35.0984 0H112.127L106.944 23.8218H57.4766L47.8187 70.0504H86.6861L81.5038 93.8722H42.6364L27.5605 165.102H0Z" fill="#03008E"/>
<path d="M92.9358 165.102L128.034 0H207.418L202.236 23.8218H150.412L140.99 68.1635H182.449L177.502 91.9854H136.043L125.443 141.28H177.266L172.319 165.102H92.9358Z" fill="#03008E"/>
<path d="M189.782 165.102L224.881 0H252.441L217.343 165.102H189.782Z" fill="#03008E"/>
<path d="M264.878 165.102L294.794 23.8218H263.7L268.647 0H358.395L353.449 23.8218H322.119L292.203 165.102H264.878Z" fill="#03008E"/>
<path d="M55.0181 352.402L90.1165 187.3H117.677L87.5254 328.58H136.993L132.046 352.402H55.0181Z" fill="#03008E"/>
<path d="M147.954 352.402L183.052 187.3H210.613L175.514 352.402H147.954Z" fill="#03008E"/>
<path d="M282.411 187.3L255.557 315.372C250.375 339.194 237.419 353.582 212.921 353.582C206.089 353.582 196.667 352.402 191.485 350.515L196.667 326.929C201.614 328.58 207.267 329.288 210.801 329.288C219.987 329.288 226.112 324.571 228.468 313.485L255.086 187.3H282.411Z" fill="#03008E"/>
<path d="M269.414 352.402L304.513 187.3H337.727L349.034 290.843L371.176 187.3H395.675L360.576 352.402H333.722L320.295 228.812L293.913 352.402H269.414Z" fill="#03008E"/>
</svg>
